:SAMPLES-PER-SECOND 30
:FRAME-RANGE 1-3549
:FULLY-SPECIFIED
:DEGREES
1331
root  -25.3626 39.0414 -43.1483 179.76 -25.9672 179.464
RightUpLeg  12.8663 -7.45584 -6.04827
RightLeg  9.42182 -0.177187 -0.314814
RightFoot  -17.7062 0.430378 9.88346
RightToes  -1.11029e-010 1.2921e-014 -6.02303e-014
Spine  5.65597 1.55432 5.35444
Spine1  5.2958 3.18503 -5.92846
HEad  8.98758 -3.0649 -1.2696
LeftShoulder1  1.4376 -0.901219 -26.4919
LeftArm  -0.602384 19.4131 -27.3528
LeftForeArm  6.96455 0.754377 -17.6444
LeftHand  0.0824896 1.97959 -3.44795
RightShoulder  9.29971 15.3191 43.0612
RightArm  15.8815 6.23278 16.3604
RightForeArm  3.59465 30.9452 6.58087
RightHand  -0.408864 2.78824 -6.02108
LeftUpLeg  -18.6571 6.65179 4.42529
LeftLeg  -2.60809 14.4448 -3.54863
LeftFoot  -0.222342 1.14833 -11.7532
LeftToes  -1.9349e-011 -1.19469e-011 -2.02219e-012
1332
root  -26.546 38.7467 -44.287 179.354 -25.4808 179.127
RightUpLeg  14.7376 -6.71965 -7.69697
RightLeg  11.8513 0.980712 -0.659716
RightFoot  -18.7785 0.731885 13.1762
RightToes  -1.11029e-010 1.2921e-014 -6.02303e-014
Spine  5.85886 1.76411 4.47997
Spine1  5.24998 3.53834 -6.51346
HEad  9.99055 -4.37677 -0.790028
LeftShoulder1  1.39766 -0.767296 -26.5816
LeftArm  0.070926 21.2629 -26.1786
LeftForeArm  5.98915 1.25675 -17.8425
LeftHand  0.0852798 2.16146 -3.9701
RightShoulder  9.23705 14.8266 43.9774
RightArm  19.1329 4.82199 16.0511
RightForeArm  1.14242 28.7551 6.17218
RightHand  -0.406261 2.9156 -5.9013
LeftUpLeg  -19.4947 6.04567 2.94655
LeftLeg  2.75053 13.4791 -2.16024
LeftFoot  6.38402 0.841969 -5.64688
LeftToes  -1.9349e-011 -1.19469e-011 -2.02219e-012
1333
root  -27.7307 38.4168 -45.4186 179.039 -24.9534 178.409
RightUpLeg  14.5968 -1.9095 -8.55821
RightLeg  18.1208 -1.11036 -0.644828
RightFoot  -19.3019 1.11402 17.7732
RightToes  -1.11029e-010 1.2921e-014 -6.02303e-014
Spine  6.35867 1.98534 2.5385
Spine1  4.72987 3.52606 -6.37146
HEad  11.1125 -6.26754 -0.0345953
LeftShoulder1  1.35052 -0.558611 -27.1172
LeftArm  0.886599 22.6054 -24.9542
LeftForeArm  4.96719 1.11634 -17.9643
LeftHand  0.0838299 2.36151 -4.04186
RightShoulder  9.22657 14.1916 45.5821
RightArm  25.9569 4.155 15.7875
RightForeArm  -3.5432 24.5568 5.43627
RightHand  -0.404524 3.20647 -5.6979
LeftUpLeg  -20.0207 8.06631 1.19003
LeftLeg  8.10658 10.25 -1.62315
LeftFoot  13.3729 -0.0737889 -0.038111
LeftToes  -1.9349e-011 -1.19469e-011 -2.02219e-012
1334
root  -28.7899 38.1838 -46.4071 179.48 -25.3441 176.855
RightUpLeg  11.6875 -0.348105 -10.959
RightLeg  28.3463 -0.594589 -0.576639
RightFoot  -16.9278 1.11499 24.8618
RightToes  -1.11029e-010 1.2921e-014 -6.02303e-014
Spine  7.11329 1.82376 -0.60338
Spine1  4.50578 2.95563 -6.2114
HEad  11.2909 -8.88645 0.954898
LeftShoulder1  1.35705 -0.493945 -27.8383
LeftArm  0.988782 22.1263 -24.4714
LeftForeArm  4.07061 1.35461 -18.069
LeftHand  0.0831872 2.52296 -4.03461
RightShoulder  9.29793 13.667 47.3943
RightArm  23.7331 4.37992 15.7348
RightForeArm  1.25895 17.132 9.38339
RightHand  -0.387588 3.67211 -5.21866
LeftUpLeg  -22.3564 16.0806 -3.92044
LeftLeg  16.529 1.45448 -0.319079
LeftFoot  7.66382 -0.22935 1.09129
LeftToes  -1.9349e-011 -1.19469e-011 -2.02219e-012
1335
root  -29.8246 38.1799 -47.311 179.579 -25.6136 176.063
RightUpLeg  6.09236 0.274555 -12.6507
RightLeg  40.9641 -1.30201 -1.49219
RightFoot  -8.1049 -0.770876 24.9391
RightToes  -1.11029e-010 1.2921e-014 -6.02303e-014
Spine  7.22546 1.63977 -1.63286
Spine1  5.63807 2.78924 -6.82051
HEad  10.3473 -11.7747 1.13122
LeftShoulder1  1.46355 -0.802512 -27.8841
LeftArm  0.107033 19.6845 -25.9384
LeftForeArm  4.38805 2.27185 -18.0845
LeftHand  0.0900725 2.50906 -4.29607
RightShoulder  9.61514 14.019 48.0337
RightArm  7.10892 4.1021 15.596
RightForeArm  15.9946 5.8664 14.9078
RightHand  -0.323269 3.87256 -4.31357
LeftUpLeg  -21.9306 18.8821 -5.93601
LeftLeg  20.1364 -1.39109 -0.4095
LeftFoot  3.79171 -0.259486 1.78037
LeftToes  -1.9349e-011 -1.19469e-011 -2.02219e-012
1336
root  -30.8202 38.2764 -48.1705 179.629 -25.2978 175.626
RightUpLeg  -1.31159 1.45552 -12.9645
RightLeg  52.9138 -3.08667 -4.75869
RightFoot  5.33817 -1.85768 12.874
RightToes  -1.11029e-010 1.2921e-014 -6.02303e-014
Spine  7.09965 1.54788 -2.45549
Spine1  6.80186 2.65681 -6.82731
HEad  9.61045 -14.0272 0.795001
LeftShoulder1  1.55761 -1.06449 -27.9999
LeftArm  -0.897114 16.672 -27.9389
LeftForeArm  5.38516 2.3338 -17.9429
LeftHand  0.0956565 2.45777 -4.43337
RightShoulder  9.98593 14.4695 48.6377
RightArm  1.83123 3.55133 15.4412
RightForeArm  16.531 -1.57194 16.3983
RightHand  -0.202991 3.66348 -2.85825
LeftUpLeg  -20.3743 18.1747 -6.45917
LeftLeg  21.7952 -0.221684 0.136096
LeftFoot  0.663375 -0.20442 1.90612
LeftToes  -1.9349e-011 -1.19469e-011 -2.02219e-012
1337
root  -31.7192 38.3603 -49.0105 179.245 -25.3138 175.425
RightUpLeg  -6.3853 1.80098 -13.1756
RightLeg  60.2225 -2.74598 -5.68013
RightFoot  3.60637 -1.63059 12.5723
RightToes  -1.11029e-010 1.2921e-014 -6.02303e-014
Spine  7.7377 1.26416 -3.64326
Spine1  7.30834 1.98797 -6.27778
HEad  9.10265 -16.2578 0.524018
LeftShoulder1  1.59379 -1.1594 -28.0851
LeftArm  -0.758326 13.7415 -29.9306
LeftForeArm  6.40425 0.949163 -17.7334
LeftHand  0.105651 2.16145 -4.31967
RightShoulder  9.93512 14.1013 49.4086
RightArm  2.20326 2.86824 15.4207
RightForeArm  14.0785 -5.09345 16.9694
RightHand  -0.070051 3.45424 -1.1665
LeftUpLeg  -18.2996 16.8821 -6.5261
LeftLeg  23.0377 1.07103 0.669821
LeftFoot  -2.1274 -0.123421 1.69121
LeftToes  -1.9349e-011 -1.19469e-011 -2.02219e-012
1338
root  -32.5783 38.5426 -49.832 179.141 -25.1826 175.643
RightUpLeg  -11.5509 1.56234 -12.5736
RightLeg  63.5506 -2.42732 -5.87759
RightFoot  2.2617 -1.42892 12.0696
RightToes  -1.11029e-010 1.2921e-014 -6.02303e-014
Spine  8.0242 0.934485 -4.22828
Spine1  7.39686 1.39396 -5.70929
HEad  8.57173 -18.7131 0.22867
LeftShoulder1  1.63578 -1.30966 -27.8871
LeftArm  -1.37953 10.7989 -32.1162
LeftForeArm  8.14965 -1.16831 -17.1539
LeftHand  0.118082 1.62315 -3.98127
RightShoulder  9.62735 13.3433 50.0365
RightArm  4.95345 1.67494 15.3749
RightForeArm  13.184 -5.80461 17.3784
RightHand  -0.0400772 3.64135 -0.769924
LeftUpLeg  -15.9889 16.6926 -6.09139
LeftLeg  22.763 1.5619 0.163194
LeftFoot  -3.99141 -0.110874 2.10107
LeftToes  -1.9349e-011 -1.19469e-011 -2.02219e-012
1339
root  -33.4436 38.7676 -50.7055 179.103 -25.5558 175.979
RightUpLeg  -15.7213 0.500387 -11.4005
RightLeg  63.147 -2.93165 -6.84127
RightFoot  0.827812 -1.22863 11.5428
RightToes  -1.11029e-010 1.2921e-014 -6.02303e-014
Spine  8.2365 0.293467 -4.98459
Spine1  6.87383 0.388892 -4.55565
HEad  8.14113 -21.3444 0.262844
LeftShoulder1  1.69387 -1.54029 -27.4757
LeftArm  -0.382941 8.51846 -34.0655
LeftForeArm  8.84299 -4.5629 -16.1842
LeftHand  0.125668 0.919192 -3.43742
RightShoulder  8.95595 12.1295 50.1686
RightArm  9.8085 0.32923 15.6988
RightForeArm  12.4807 -4.77407 17.91
RightHand  -0.0590037 3.48167 -1.02024
LeftUpLeg  -13.2113 14.2843 -5.30553
LeftLeg  21.5522 3.7517 -0.281788
LeftFoot  -5.53257 -0.0689984 2.01704
LeftToes  -1.9349e-011 -1.19469e-011 -2.02219e-012
1340
root  -34.3055 39.0135 -51.5769 179.312 -25.8983 176.286
RightUpLeg  -19.1259 -0.954924 -9.92133
RightLeg  59.2606 -3.99763 -7.69862
RightFoot  -0.728665 -1.04356 11.149
RightToes  -1.11029e-010 1.2921e-014 -6.02303e-014
Spine  8.19412 -0.580677 -5.82677
Spine1  6.13733 -0.831277 -3.04794
HEad  7.2532 -23.9637 -6.31808e-005
LeftShoulder1  1.7788 -1.84314 -27.1555
LeftArm  5.56455 6.74029 -35.3407
LeftForeArm  5.43432 -9.83754 -14.3606
LeftHand  0.0997787 0.571869 -2.50742
RightShoulder  8.27411 11.0181 49.9051
RightArm  14.3724 -1.0421 16.1836
RightForeArm  12.4303 -2.77893 18.1794
RightHand  -0.0789249 3.63438 -1.26977
LeftUpLeg  -10.3381 10.9366 -4.69116
LeftLeg  19.4312 6.71374 -0.780224
LeftFoot  -6.6206 -0.031546 1.73237
LeftToes  -1.9349e-011 -1.19469e-011 -2.02219e-012
